<?xml version="1.0" encoding="UTF-8"?>
<svg xmlns="http://www.w3.org/2000/svg" viewBox="0 0 388 80" role="img" aria-label="EasierLet">
  <title>EasierLet</title>
  <g fill="none" stroke="#194D3A" stroke-linecap="round" stroke-linejoin="round">
    <path d="M 22 66 L 22 38 L 40 24 L 58 38 L 58 66 Z" stroke-width="5"/>
    <path d="M 34 44 L 34 58 L 50 58" stroke-width="6"/>
    <line x1="34" y1="43.75" x2="46" y2="43.75" stroke-width="4.5"/>
    <line x1="34" y1="51" x2="46" y2="51" stroke-width="4.5"/>
  </g>
  <g transform="translate(96, 0) scale(0.833333)">
    <path d="M286 -12Q211 -12 157.5 18.5Q104 49 75.5 105.5Q47 162 47 239Q47 317 77.0 376.5Q107 436 160.0 470.0Q213 504 281 504Q342 504 387.0 480.5Q432 457 457.5 413.0Q483 369 483 308Q483 289 480.5 270.5Q478 252 475 240H141Q143 185 162 145Q182 101 219.5 78.0Q257 55 307 55Q360 55 395.5 74.5Q431 94 459 126L490 101Q468 68 441.0 42.0Q414 16 377.0 2.0Q340 -12 286 -12ZM142 287H362Q383 294 389.0 307.0Q395 320 395 337Q395 376 381.5 401.5Q368 427 342.5 439.5Q317 452 281 452Q243 452 211.0 431.0Q179 410 160 366Q146 333 142 287Z" fill="#194D3A" transform="translate(0.000 70) scale(0.080000 -0.080000)"/>
  <path d="M185 -14Q128 -14 87.5 19.0Q47 52 47 116Q47 153 62.5 181.0Q78 209 113.5 231.0Q149 253 210 270Q239 279 267.5 286.5Q296 294 325 302Q334 305 344 307V331Q344 377 333.0 404.0Q322 431 298.5 442.0Q275 453 239 453Q214 453 191 449Q185 448 178 446L167 384Q162 354 148.0 340.0Q134 326 111 326Q87 326 74.5 338.5Q62 351 59 368Q72 430 127.0 467.0Q182 504 265 504Q317 504 355.0 487.0Q393 470 413.5 432.5Q434 395 434 331V109Q434 78 445.0 64.5Q456 51 476 51Q489 51 498.5 55.5Q508 60 516 66L532 31Q517 12 495.5 0.5Q474 -11 444 -11Q401 -11 375 17Q353 40 348 80H337Q317 54 296.5 32.5Q276 11 249.5 -1.5Q223 -14 185 -14ZM344 266Q327 260 309 255Q273 243 237 231Q196 219 175.0 203.5Q154 188 146.5 170.5Q139 153 139 133Q139 96 162.0 75.5Q185 55 223 55Q248 55 268.0 64.0Q288 73 311 92Q326 103 344 119Z" fill="#194D3A" transform="translate(41.840 70) scale(0.080000 -0.080000)"/>
  <path d="M217 -12Q167 -12 126.0 -2.5Q85 7 52 23L48 144H107L127 52Q135 49 144 47Q178 37 218.0 37.0Q258 37 282.5 48.0Q307 59 318.5 77.5Q330 96 330 118Q330 151 307.0 170.0Q284 189 234 205L201 217Q154 232 121.0 251.5Q88 271 70.5 298.0Q53 325 53 362Q53 402 75.5 434.5Q98 467 140.5 485.5Q183 504 241 504Q285 504 324.0 494.0Q363 484 392 468L390 355H332L315 442Q307 444 300 447Q272 454 241 454Q190 454 165.5 434.0Q141 414 141.0 383.0Q141 352 162.5 334.5Q184 317 236 299L262 290Q315 273 350.5 251.0Q386 229 403.0 201.5Q420 174 420 137Q420 95 396.0 61.5Q372 28 327.0 8.0Q282 -12 217 -12Z" fill="#194D3A" transform="translate(84.320 70) scale(0.080000 -0.080000)"/>
  <path d="M42 0V48L121 55Q121 61 121 67Q121 104 121.5 143.0Q122 182 122 215V267Q122 305 121.5 336.0Q121 367 120 400L37 404V448L186 498L214 493L212 371V215Q212 182 212.5 143.0Q213 104 213 67Q213 61 213 55L290 48V0ZM164 599Q136 599 116.5 618.0Q97 637 97.0 665.0Q97 693 116.5 712.0Q136 731 164 731Q193 731 212.5 712.0Q232 693 232.0 665.0Q232 637 212.5 618.0Q193 599 164 599Z" fill="#194D3A" transform="translate(120.720 70) scale(0.080000 -0.080000)"/>
  <path d="M286 -12Q211 -12 157.5 18.5Q104 49 75.5 105.5Q47 162 47 239Q47 317 77.0 376.5Q107 436 160.0 470.0Q213 504 281 504Q342 504 387.0 480.5Q432 457 457.5 413.0Q483 369 483 308Q483 289 480.5 270.5Q478 252 475 240H141Q143 185 162 145Q182 101 219.5 78.0Q257 55 307 55Q360 55 395.5 74.5Q431 94 459 126L490 101Q468 68 441.0 42.0Q414 16 377.0 2.0Q340 -12 286 -12ZM142 287H362Q383 294 389.0 307.0Q395 320 395 337Q395 376 381.5 401.5Q368 427 342.5 439.5Q317 452 281 452Q243 452 211.0 431.0Q179 410 160 366Q146 333 142 287Z" fill="#194D3A" transform="translate(146.240 70) scale(0.080000 -0.080000)"/>
  <path d="M45 0V48L123 55Q123 61 124 67Q124 104 124 143V315Q124 337 123.5 357.5Q123 378 123 400L39 404V448L171 498L199 493L209 357L215 356V355H220Q238 400 259.5 433.0Q281 466 307.5 484.0Q334 502 366 502Q396 502 415.5 487.5Q435 473 442 456Q441 425 425.5 403.0Q410 381 377 381Q356 381 340.5 389.5Q325 398 312 410L306 416Q279 397 259 372Q233 340 215 302V143Q215 104 216 67Q216 61 216 56L313 48V0Z" fill="#194D3A" transform="translate(188.080 70) scale(0.080000 -0.080000)"/>
  <path d="M32 0V65L112 69Q112 84 112 100V558Q112 573 112 588L32 593V657H381V593L289 588Q289 573 289 558Q288 508 288 458V199Q288 150 289 100Q289 83 289 65H478L507 205H586L577 0Z" fill="#194D3A" transform="translate(223.760 70) scale(0.080000 -0.080000)"/>
  <path d="M301 -15Q221 -15 161.0 15.5Q101 46 67.5 104.0Q34 162 34.0 245.0Q34 328 67.5 388.0Q101 448 160.0 481.0Q219 514 293 514Q362 514 411.5 487.0Q461 460 488.0 412.5Q515 365 515 301Q515 281 513.5 266.5Q512 252 509 237H206Q210 194 225 163Q244 122 277.5 102.5Q311 83 353.0 83.0Q395 83 424.5 97.0Q454 111 477 138L519 105Q497 69 467.5 42.0Q438 15 397.0 0.0Q356 -15 301 -15ZM205 291H333Q352 301 358.5 315.0Q365 329 365 355Q365 388 356.0 410.5Q347 433 330.5 444.5Q314 456 293 456Q266 456 246.0 438.0Q226 420 216 379Q207 345 205 291Z" fill="#194D3A" transform="translate(272.080 70) scale(0.080000 -0.080000)"/>
  <path d="M230 -14Q160 -14 119.5 21.0Q79 56 79 135V420H12V482L91 493L148 637H250L242 493H354V420H245V144Q245 110 260.5 94.0Q276 78 301 78Q317 78 329.0 82.5Q341 87 351 93L375 49Q365 33 345.5 18.5Q326 4 297.5 -5.0Q269 -14 230 -14Z" fill="#194D3A" transform="translate(315.040 70) scale(0.080000 -0.080000)"/>
  </g>
</svg>
